<svg id="Bold" enable-background="new 0 0 24 24" height="512" viewBox="0 0 24 24" width="512" xmlns="http://www.w3.org/2000/svg"><g><path d="m2 14.5h9.25v9.5h-7.5c-.96 0-1.75-.79-1.75-1.75z"/></g><g><path d="m22 14.5v7.75c0 .96-.79 1.75-1.75 1.75h-7.5v-9.5z"/></g><g><path d="m0 8.75v2.5c0 .96.79 1.75 1.75 1.75h.25 9.25v-1.5-4.5h-9.5c-.96 0-1.75.79-1.75 1.75z"/></g><g><path d="m22.25 7h-9.5v4.5 1.5h9.25.25c.96 0 1.75-.79 1.75-1.75v-2.5c0-.96-.79-1.75-1.75-1.75z"/></g><g><path d="m12 8.044c-.218 0-.426-.095-.567-.26-.143-.165-.206-.384-.175-.6.37-2.5 2.323-7.229 7.071-7.229 2.71.001 3.671 1.465 3.671 2.719 0 2.229-3.103 5.37-10 5.37zm6.329-6.588c-3.582 0-4.942 3.405-5.393 5.066 2.826-.132 4.608-.847 5.634-1.456 1.423-.845 1.93-1.79 1.93-2.393 0-.898-1.121-1.217-2.171-1.217z"/></g><g><path d="m12.001 8.044c-6.897 0-10-3.141-10-5.37 0-1.254.962-2.718 3.672-2.718 4.747 0 6.7 4.729 7.07 7.229.031.216-.032.435-.175.6-.141.164-.349.259-.567.259zm-6.328-6.588c-1.05 0-2.172.32-2.172 1.218 0 1.277 2.233 3.604 7.563 3.849-.45-1.662-1.81-5.067-5.391-5.067z"/></g></svg>